<svg width="130" height="18" viewBox="0 0 130 18" fill="none" xmlns="http://www.w3.org/2000/svg">
<g id="Group 92">
<g id="Group 88">
<path id="Vector" d="M43.1538 1.43164C40.6272 1.43164 38.5714 3.39917 38.5714 5.81644V12.0789C38.5714 14.4959 40.6284 16.4626 43.1556 16.4626H49.7028C52.2297 16.4626 54.2857 14.495 54.2857 12.0778V5.81468C54.2857 3.39801 52.2287 1.43164 49.7016 1.43164H43.1538ZM51.1429 3.83659C51.4898 3.83659 51.7714 4.10594 51.7714 4.43782C51.7714 4.76971 51.4898 5.03906 51.1429 5.03906C50.7959 5.03906 50.5143 4.76971 50.5143 4.43782C50.5143 4.10594 50.7959 3.83659 51.1429 3.83659ZM46.4286 5.03906C48.682 5.03906 50.5143 6.79167 50.5143 8.9471C50.5143 11.1025 48.6817 12.8551 46.4286 12.8551C44.1752 12.8551 42.3429 11.1022 42.3429 8.9471C42.3429 6.79197 44.1752 5.03906 46.4286 5.03906ZM46.4286 6.24154C44.8663 6.24154 43.6 7.45273 43.6 8.9471C43.6 10.4415 44.8663 11.6527 46.4286 11.6527C47.9909 11.6527 49.2572 10.4415 49.2572 8.9471C49.2572 7.45273 47.9909 6.24154 46.4286 6.24154Z" fill="#696969"/>
<path id="Vector_2" d="M8.92857 0C3.99794 0 0 4.02686 0 8.99315C0 13.5018 3.29773 17.225 7.59375 17.8753V11.3763H5.38462V9.01252H7.59375V7.43941C7.59375 4.8352 8.85337 3.69238 11.0024 3.69238C12.0313 3.69238 12.5762 3.76951 12.8334 3.8041V5.86734H11.3678C10.4557 5.86734 10.137 6.73898 10.137 7.72062V9.01252H12.8104L12.4481 11.3763H10.137V17.894C14.4949 17.299 17.8571 13.5461 17.8571 8.99315C17.8571 4.02686 13.8595 0 8.92857 0Z" fill="#696969"/>
<path id="Vector_3" d="M93.5714 3.29351C92.8888 3.61187 92.1548 3.82411 91.3805 3.92441C92.1678 3.4325 92.7734 2.6479 93.0576 1.7209C92.321 2.1755 91.5051 2.50926 90.6368 2.68521C89.9435 1.91157 88.9545 1.43164 87.8589 1.43164C85.7542 1.43164 84.0485 3.2117 84.0485 5.40631C84.0485 5.71679 84.083 6.0194 84.148 6.31311C80.9818 6.14572 78.1737 4.56146 76.295 2.15702C75.9649 2.74443 75.7792 3.4325 75.7792 4.15855C75.7792 5.53844 76.4504 6.75299 77.4738 7.46878C76.8491 7.44858 76.2611 7.26579 75.7463 6.97242C75.7463 6.9844 75.7463 7.0022 75.7463 7.01897C75.7463 8.94726 77.0602 10.5527 78.8016 10.9183C78.4833 11.0101 78.147 11.0611 77.8003 11.0611C77.5542 11.0611 77.3145 11.0316 77.0823 10.9878C77.5672 12.5635 78.974 13.7154 80.6407 13.7493C79.3366 14.8136 77.6943 15.451 75.9083 15.451C75.5997 15.451 75.2982 15.4325 75 15.3945C76.6868 16.519 78.6904 17.1783 80.841 17.1783C87.8488 17.1783 91.6823 11.1206 91.6823 5.8657C91.6823 5.69351 91.6771 5.52201 91.6693 5.35256C92.4176 4.79664 93.0622 4.09488 93.5714 3.29351Z" fill="#696969"/>
</g>
<path id="Vector_4" d="M130 1.43164H115V16.4626H130V1.43164ZM120 13.1224H117.898V7.277H120V13.1224ZM118.912 6.20563C118.269 6.20563 117.84 5.77641 117.84 5.20357C117.84 4.63072 118.268 4.20151 118.982 4.20151C119.625 4.20151 120.054 4.63072 120.054 5.20357C120.054 5.77641 119.626 6.20563 118.912 6.20563ZM127.5 13.1224H125.465V9.92745C125.465 9.04397 124.922 8.84022 124.719 8.84022C124.516 8.84022 123.837 8.97633 123.837 9.92745C123.837 10.0636 123.837 13.1224 123.837 13.1224H121.735V7.277H123.837V8.09284C124.108 7.61687 124.651 7.277 125.668 7.277C126.686 7.277 127.5 8.09284 127.5 9.92745V13.1224Z" fill="#696969"/>
</g>
</svg>
